ffmpeg started on 2016-12-08 at 00:28:20
Report written to "Output/x264/results/ffmpeg/crowd_run_2160p50slower4500k.log"
Command line:
Tools/ffmpeg/ffmpeg -benchmark -y -i Input/y4m/crowd_run_2160p50.y4m -c:v libx264 -preset slower -b:v 4500k -an Output/x264/encoded/crowd_run_2160p50slower4500k.mkv
ffmpeg version N-82227-gdb23fde Copyright (c) 2000-2016 the FFmpeg developers
  built with gcc 5.4.0 (Ubuntu 5.4.0-6ubuntu1~16.04.2) 20160609
  configuration: --prefix=/home/jaroslav/ffmpeg_build --pkg-config-flags=--static --extra-cflags=-I/home/jaroslav/ffmpeg_build/include --extra-ldflags=-L/home/jaroslav/ffmpeg_build/lib --bindir=/home/jaroslav/bin --enable-gpl --enable-libass --enable-libfdk-aac --enable-libfreetype --enable-libmp3lame --enable-libopus --enable-libtheora --enable-libvorbis --enable-libvpx --enable-libx264 --enable-libx265 --enable-nvenc --enable-libmfx --enable-libxvid --enable-libgsm --enable-libopencore-amrnb --enable-version3 --enable-nonfree
  libavutil      55. 35.100 / 55. 35.100
  libavcodec     57. 66.101 / 57. 66.101
  libavformat    57. 57.100 / 57. 57.100
  libavdevice    57.  2.100 / 57.  2.100
  libavfilter     6. 66.100 /  6. 66.100
  libswscale      4.  3.100 /  4.  3.100
  libswresample   2.  4.100 /  2.  4.100
  libpostproc    54.  2.100 / 54.  2.100
Input #0, yuv4mpegpipe, from 'Input/y4m/crowd_run_2160p50.y4m':
  Duration: 00:00:10.00, start: 0.000000, bitrate: 4976642 kb/s
    Stream #0:0: Video: rawvideo (I420 / 0x30323449), yuv420p(progressive), 3840x2160, SAR 1:1 DAR 16:9, 50 fps, 50 tbr, 50 tbn, 50 tbc
[libx264 @ 0x44131c0] using SAR=1/1
[libx264 @ 0x44131c0] DPB size (8 frames, 259200 mbs) > level limit (5 frames, 184320 mbs)
[libx264 @ 0x44131c0] using cpu capabilities: MMX2 SSE2Fast SSSE3 SSE4.2 AVX FMA3 AVX2 LZCNT BMI2
[libx264 @ 0x44131c0] profile High, level 5.2
[libx264 @ 0x44131c0] 264 - core 148 - H.264/MPEG-4 AVC codec - Copyleft 2003-2016 - http://www.videolan.org/x264.html - options: cabac=1 ref=8 deblock=1:0:0 analyse=0x3:0x133 me=umh subme=9 psy=1 psy_rd=1.00:0.00 mixed_ref=1 me_range=16 chroma_me=1 trellis=2 8x8dct=1 cqm=0 deadzone=21,11 fast_pskip=1 chroma_qp_offset=-2 threads=6 lookahead_threads=1 sliced_threads=0 nr=0 decimate=1 interlaced=0 bluray_compat=0 constrained_intra=0 bframes=3 b_pyramid=2 b_adapt=2 b_bias=0 direct=3 weightb=1 open_gop=0 weightp=2 keyint=250 keyint_min=25 scenecut=40 intra_refresh=0 rc_lookahead=60 rc=abr mbtree=1 bitrate=4500 ratetol=1.0 qcomp=0.60 qpmin=0 qpmax=69 qpstep=4 ip_ratio=1.40 aq=1:1.00
Output #0, matroska, to 'Output/x264/encoded/crowd_run_2160p50slower4500k.mkv':
  Metadata:
    encoder         : Lavf57.57.100
    Stream #0:0: Video: h264 (libx264) (H264 / 0x34363248), yuv420p, 3840x2160 [SAR 1:1 DAR 16:9], q=-1--1, 4500 kb/s, 50 fps, 1k tbn, 50 tbc
    Metadata:
      encoder         : Lavc57.66.101 libx264
    Side data:
      cpb: bitrate max/min/avg: 0/0/4500000 buffer size: 0 vbv_delay: -1
Stream mapping:
  Stream #0:0 -> #0:0 (rawvideo (native) -> h264 (libx264))
Press [q] to stop, [?] for help
frame=   17 fps=0.0 q=0.0 size=       0kB time=00:00:00.00 bitrate=N/A speed=   0x    frame=   34 fps= 26 q=0.0 size=       0kB time=00:00:00.00 bitrate=N/A speed=   0x    frame=   44 fps= 21 q=0.0 size=       0kB time=00:00:00.00 bitrate=N/A speed=   0x    frame=   57 fps= 22 q=0.0 size=       0kB time=00:00:00.00 bitrate=N/A speed=   0x    frame=   67 fps= 11 q=0.0 size=       0kB time=00:00:00.00 bitrate=N/A speed=   0x    frame=   72 fps= 11 q=41.0 size=       1kB time=-00:00:00.01 bitrate=N/A speed=N/A    frame=   73 fps= 10 q=50.0 size=       1kB time=00:00:00.00 bitrate=5888.0kbits/s speed=0.000137x    frame=   76 fps=9.7 q=58.0 size=       1kB time=00:00:00.06 bitrate=  96.5kbits/s speed=0.00775x    frame=   80 fps=9.3 q=56.0 size=       1kB time=00:00:00.14 bitrate=  41.8kbits/s speed=0.0163x    frame=   82 fps=8.7 q=57.0 size=       1kB time=00:00:00.18 bitrate=  32.5kbits/s speed=0.0193x    frame=   84 fps=8.2 q=56.0 size=       1kB time=00:00:00.22 bitrate=  26.6kbits/s speed=0.0217x    frame=   88 fps=8.2 q=56.0 size=       1kB time=00:00:00.30 bitrate=  19.6kbits/s speed=0.028x    frame=   90 fps=7.7 q=56.0 size=       1kB time=00:00:00.34 bitrate=  17.3kbits/s speed=0.0292x    frame=   94 fps=7.4 q=56.0 size=       1kB time=00:00:00.42 bitrate=  14.0kbits/s speed=0.0332x    frame=   97 fps=7.3 q=55.0 size=       1kB time=00:00:00.48 bitrate=  12.2kbits/s speed=0.0364x    frame=   99 fps=7.1 q=55.0 size=       1kB time=00:00:00.52 bitrate=  11.3kbits/s speed=0.0374x    frame=  102 fps=6.9 q=55.0 size=       1kB time=00:00:00.58 bitrate=  10.1kbits/s speed=0.0393x    frame=  104 fps=6.8 q=55.0 size=       1kB time=00:00:00.62 bitrate=   9.5kbits/s speed=0.0405x    frame=  108 fps=6.7 q=55.0 size=       1kB time=00:00:00.70 bitrate=   8.4kbits/s speed=0.0437x    frame=  109 fps=6.6 q=55.0 size=       1kB time=00:00:00.72 bitrate=   8.2kbits/s speed=0.0434x    frame=  113 fps=6.5 q=55.0 size=       1kB time=00:00:00.80 bitrate=   7.4kbits/s speed=0.0463x    frame=  114 fps=6.3 q=55.0 size=       1kB time=00:00:00.82 bitrate=   7.2kbits/s speed=0.0457x    frame=  118 fps=6.3 q=55.0 size=       1kB time=00:00:00.90 bitrate=   6.5kbits/s speed=0.0483x    frame=  120 fps=6.2 q=55.0 size=       1kB time=00:00:00.94 bitrate=   6.3kbits/s speed=0.0485x    frame=  122 fps=6.1 q=55.0 size=       1kB time=00:00:00.98 bitrate=   6.0kbits/s speed=0.0491x    frame=  126 fps=6.1 q=55.0 size=       1kB time=00:00:01.06 bitrate=   5.5kbits/s speed=0.0512x    frame=  127 fps=5.9 q=54.0 size=       1kB time=00:00:01.08 bitrate=   5.4kbits/s speed=0.0506x    frame=  131 fps=5.9 q=54.0 size=       1kB time=00:00:01.16 bitrate=   5.1kbits/s speed=0.0521x    frame=  135 fps=5.8 q=54.0 size=       1kB time=00:00:01.24 bitrate=   4.7kbits/s speed=0.0532x    frame=  139 fps=5.7 q=54.0 size=       1kB time=00:00:01.32 bitrate=   4.5kbits/s speed=0.0541x    frame=  143 fps=5.6 q=54.0 size=       1kB time=00:00:01.40 bitrate=   4.2kbits/s speed=0.0551x    frame=  147 fps=5.5 q=54.0 size=       1kB time=00:00:01.48 bitrate=   4.0kbits/s speed=0.0559x    frame=  150 fps=5.5 q=54.0 size=       1kB time=00:00:01.54 bitrate=   3.8kbits/s speed=0.0568x    frame=  151 fps=5.5 q=54.0 size=       1kB time=00:00:01.56 bitrate=   3.8kbits/s speed=0.0564x    frame=  155 fps=5.4 q=54.0 size=       1kB time=00:00:01.64 bitrate=   3.6kbits/s speed=0.0575x    frame=  159 fps=5.3 q=54.0 size=       1kB time=00:00:01.72 bitrate=   3.4kbits/s speed=0.0578x    frame=  163 fps=5.3 q=54.0 size=       1kB time=00:00:01.80 bitrate=   3.3kbits/s speed=0.0589x    frame=  166 fps=5.3 q=54.0 size=       1kB time=00:00:01.86 bitrate=   3.2kbits/s speed=0.059x    frame=  168 fps=5.2 q=53.0 size=       1kB time=00:00:01.90 bitrate=   3.1kbits/s speed=0.0592x    frame=  171 fps=5.2 q=53.0 size=       1kB time=00:00:01.96 bitrate=   3.0kbits/s speed=0.0601x    frame=  173 fps=5.2 q=53.0 size=       1kB time=00:00:02.00 bitrate=   2.9kbits/s speed=0.0602x    frame=  175 fps=5.2 q=53.0 size=       1kB time=00:00:02.04 bitrate=   2.9kbits/s speed=0.0601x    frame=  178 fps=5.1 q=53.0 size=       1kB time=00:00:02.10 bitrate=   2.8kbits/s speed=0.0606x    frame=  182 fps=5.1 q=53.0 size=       1kB time=00:00:02.18 bitrate=   2.7kbits/s speed=0.0616x    frame=  184 fps=5.1 q=53.0 size=       1kB time=00:00:02.22 bitrate=   2.7kbits/s speed=0.0612x    frame=  188 fps=5.0 q=53.0 size=       1kB time=00:00:02.30 bitrate=   2.6kbits/s speed=0.0618x    frame=  192 fps=5.0 q=53.0 size=       1kB time=00:00:02.38 bitrate=   2.5kbits/s speed=0.062x    frame=  196 fps=5.0 q=53.0 size=       1kB time=00:00:02.46 bitrate=   2.4kbits/s speed=0.0626x    frame=  198 fps=5.0 q=53.0 size=       1kB time=00:00:02.50 bitrate=   2.4kbits/s speed=0.0627x    frame=  201 fps=5.0 q=53.0 size=       1kB time=00:00:02.56 bitrate=   2.3kbits/s speed=0.0632x    frame=  203 fps=4.9 q=53.0 size=       1kB time=00:00:02.60 bitrate=   2.3kbits/s speed=0.063x    frame=  207 fps=4.9 q=53.0 size=       1kB time=00:00:02.68 bitrate=   2.2kbits/s speed=0.0637x    frame=  210 fps=4.9 q=53.0 size=       1kB time=00:00:02.74 bitrate=   2.1kbits/s speed=0.0642x    frame=  211 fps=4.9 q=53.0 size=       1kB time=00:00:02.76 bitrate=   2.1kbits/s speed=0.0637x    frame=  215 fps=4.9 q=53.0 size=       1kB time=00:00:02.84 bitrate=   2.1kbits/s speed=0.0642x    frame=  218 fps=4.8 q=53.0 size=       1kB time=00:00:02.90 bitrate=   2.0kbits/s speed=0.0642x    frame=  222 fps=4.8 q=53.0 size=       1kB time=00:00:02.98 bitrate=   2.0kbits/s speed=0.0646x    frame=  225 fps=4.8 q=53.0 size=       1kB time=00:00:03.04 bitrate=   1.9kbits/s speed=0.0651x    frame=  228 fps=4.8 q=53.0 size=       1kB time=00:00:03.10 bitrate=   1.9kbits/s speed=0.0655x    frame=  229 fps=4.7 q=53.0 size=       1kB time=00:00:03.12 bitrate=   1.9kbits/s speed=0.0646x    frame=  233 fps=4.8 q=53.0 size=       1kB time=00:00:03.20 bitrate=   1.8kbits/s speed=0.0656x    frame=  235 fps=4.7 q=53.0 size=       1kB time=00:00:03.24 bitrate=   1.8kbits/s speed=0.0652x    frame=  238 fps=4.7 q=53.0 size=       1kB time=00:00:03.30 bitrate=   1.8kbits/s speed=0.0655x    frame=  241 fps=4.7 q=53.0 size=       1kB time=00:00:03.36 bitrate=   1.8kbits/s speed=0.0656x    frame=  244 fps=4.7 q=53.0 size=       1kB time=00:00:03.42 bitrate=   1.7kbits/s speed=0.0661x    frame=  245 fps=4.7 q=53.0 size=       1kB time=00:00:03.44 bitrate=   1.7kbits/s speed=0.0656x    frame=  249 fps=4.7 q=53.0 size=       1kB time=00:00:03.52 bitrate=   1.7kbits/s speed=0.0662x    frame=  251 fps=4.7 q=53.0 size=       1kB time=00:00:03.56 bitrate=   1.7kbits/s speed=0.0662x    frame=  253 fps=4.7 q=53.0 size=       1kB time=00:00:03.60 bitrate=   1.6kbits/s speed=0.0662x    frame=  256 fps=4.6 q=53.0 size=       1kB time=00:00:03.66 bitrate=   1.6kbits/s speed=0.0663x    frame=  259 fps=4.6 q=53.0 size=       1kB time=00:00:03.72 bitrate=   1.6kbits/s speed=0.0666x    frame=  261 fps=4.6 q=53.0 size=       1kB time=00:00:03.76 bitrate=   1.6kbits/s speed=0.0667x    frame=  263 fps=4.6 q=53.0 size=       1kB time=00:00:03.80 bitrate=   1.5kbits/s speed=0.0666x    frame=  266 fps=4.6 q=53.0 size=       1kB time=00:00:03.86 bitrate=   1.5kbits/s speed=0.0667x    frame=  269 fps=4.6 q=53.0 size=       1kB time=00:00:03.92 bitrate=   1.5kbits/s speed=0.067x    frame=  271 fps=4.6 q=53.0 size=       1kB time=00:00:03.96 bitrate=   1.5kbits/s speed=0.0669x    frame=  274 fps=4.6 q=53.0 size=       1kB time=00:00:04.02 bitrate=   1.5kbits/s speed=0.0672x    frame=  276 fps=4.6 q=53.0 size=       1kB time=00:00:04.06 bitrate=   1.4kbits/s speed=0.0672x    frame=  278 fps=4.5 q=53.0 size=       1kB time=00:00:04.10 bitrate=   1.4kbits/s speed=0.067x    frame=  281 fps=4.5 q=53.0 size=       1kB time=00:00:04.16 bitrate=   1.4kbits/s speed=0.0674x    frame=  282 fps=4.5 q=53.0 size=       1kB time=00:00:04.18 bitrate=   1.4kbits/s speed=0.067x    frame=  286 fps=4.5 q=53.0 size=       1kB time=00:00:04.26 bitrate=   1.4kbits/s speed=0.0672x    frame=  289 fps=4.5 q=53.0 size=       1kB time=00:00:04.32 bitrate=   1.4kbits/s speed=0.0676x    frame=  290 fps=4.5 q=53.0 size=       1kB time=00:00:04.34 bitrate=   1.4kbits/s speed=0.0672x    frame=  294 fps=4.5 q=53.0 size=       1kB time=00:00:04.42 bitrate=   1.3kbits/s speed=0.0674x    frame=  298 fps=4.5 q=53.0 size=       1kB time=00:00:04.50 bitrate=   1.3kbits/s speed=0.0677x    frame=  301 fps=4.5 q=53.0 size=       1kB time=00:00:04.56 bitrate=   1.3kbits/s speed=0.0676x    frame=  304 fps=4.5 q=53.0 size=       1kB time=00:00:04.62 bitrate=   1.3kbits/s speed=0.0679x    frame=  305 fps=4.4 q=53.0 size=       1kB time=00:00:04.64 bitrate=   1.3kbits/s speed=0.0674x    frame=  309 fps=4.4 q=53.0 size=       1kB time=00:00:04.72 bitrate=   1.2kbits/s speed=0.0678x    frame=  312 fps=4.4 q=53.0 size=       1kB time=00:00:04.78 bitrate=   1.2kbits/s speed=0.0676x    frame=  314 fps=4.4 q=53.0 size=       1kB time=00:00:04.82 bitrate=   1.2kbits/s speed=0.0677x    frame=  318 fps=4.4 q=53.0 size=       1kB time=00:00:04.90 bitrate=   1.2kbits/s speed=0.0682x    frame=  319 fps=4.4 q=53.0 size=       1kB time=00:00:04.92 bitrate=   1.2kbits/s speed=0.068x    frame=  325 fps=4.5 q=53.0 size=    2822kB time=00:00:05.04 bitrate=4585.7kbits/s speed=0.0692x    frame=  327 fps=4.5 q=53.0 size=    2822kB time=00:00:05.08 bitrate=4549.6kbits/s speed=0.0692x    frame=  329 fps=4.4 q=53.0 size=    2822kB time=00:00:05.12 bitrate=4514.1kbits/s speed=0.0692x    frame=  331 fps=4.4 q=53.0 size=    2822kB time=00:00:05.16 bitrate=4479.1kbits/s speed=0.0693x    frame=  334 fps=4.4 q=53.0 size=    2822kB time=00:00:05.22 bitrate=4427.6kbits/s speed=0.0695x    frame=  336 fps=4.4 q=53.0 size=    2822kB time=00:00:05.26 bitrate=4394.0kbits/s speed=0.0695x    frame=  338 fps=4.4 q=53.0 size=    2822kB time=00:00:05.30 bitrate=4360.8kbits/s speed=0.0695x    frame=  340 fps=4.4 q=53.0 size=    2822kB time=00:00:05.34 bitrate=4328.2kbits/s speed=0.0694x    frame=  342 fps=4.4 q=53.0 size=    2822kB time=00:00:05.38 bitrate=4296.0kbits/s speed=0.0694x    frame=  345 fps=4.4 q=53.0 size=    2822kB time=00:00:05.44 bitrate=4248.6kbits/s speed=0.0695x    frame=  348 fps=4.4 q=53.0 size=    2822kB time=00:00:05.50 bitrate=4202.3kbits/s speed=0.0696x    frame=  349 fps=4.4 q=53.0 size=    2822kB time=00:00:05.52 bitrate=4187.0kbits/s speed=0.0694x    frame=  352 fps=4.4 q=53.0 size=    2822kB time=00:00:05.58 bitrate=4142.0kbits/s speed=0.0697x    frame=  353 fps=4.4 q=53.0 size=    2822kB time=00:00:05.60 bitrate=4127.2kbits/s speed=0.0694x    frame=  356 fps=4.4 q=53.0 size=    2822kB time=00:00:05.66 bitrate=4083.5kbits/s speed=0.0697x    frame=  358 fps=4.4 q=53.0 size=    2822kB time=00:00:05.70 bitrate=4054.8kbits/s speed=0.0697x    frame=  360 fps=4.4 q=53.0 size=    2822kB time=00:00:05.74 bitrate=4026.6kbits/s speed=0.0697x    frame=  362 fps=4.4 q=53.0 size=    2822kB time=00:00:05.78 bitrate=3998.7kbits/s speed=0.0697x    frame=  365 fps=4.3 q=53.0 size=    2822kB time=00:00:05.84 bitrate=3957.7kbits/s speed=0.0694x    frame=  369 fps=4.3 q=53.0 size=    2822kB time=00:00:05.92 bitrate=3904.2kbits/s speed=0.0697x    frame=  372 fps=4.3 q=53.0 size=    2822kB time=00:00:05.98 bitrate=3865.0kbits/s speed=0.0698x    frame=  374 fps=4.3 q=53.0 size=    2822kB time=00:00:06.02 bitrate=3839.3kbits/s speed=0.0697x    frame=  377 fps=4.3 q=53.0 size=    2822kB time=00:00:06.08 bitrate=3801.5kbits/s speed=0.07x    frame=  379 fps=4.3 q=53.0 size=    2822kB time=00:00:06.12 bitrate=3776.6kbits/s speed=0.0698x    frame=  381 fps=4.3 q=53.0 size=    2822kB time=00:00:06.16 bitrate=3752.1kbits/s speed=0.0697x    frame=  385 fps=4.3 q=53.0 size=    2822kB time=00:00:06.24 bitrate=3704.0kbits/s speed=0.0698x    frame=  386 fps=4.3 q=53.0 size=    2822kB time=00:00:06.26 bitrate=3692.2kbits/s speed=0.0696x    frame=  390 fps=4.3 q=53.0 size=    2822kB time=00:00:06.34 bitrate=3645.6kbits/s speed=0.0698x    frame=  394 fps=4.3 q=53.0 size=    2822kB time=00:00:06.42 bitrate=3600.2kbits/s speed=0.0697x    frame=  397 fps=4.3 q=53.0 size=    2822kB time=00:00:06.48 bitrate=3566.8kbits/s speed=0.07x    frame=  399 fps=4.3 q=53.0 size=    2822kB time=00:00:06.52 bitrate=3545.0kbits/s speed=0.0699x    frame=  401 fps=4.3 q=53.0 size=    2822kB time=00:00:06.56 bitrate=3523.3kbits/s speed=0.07x    frame=  402 fps=4.3 q=53.0 size=    2822kB time=00:00:06.58 bitrate=3512.6kbits/s speed=0.0698x    frame=  406 fps=4.3 q=53.0 size=    2822kB time=00:00:06.66 bitrate=3470.5kbits/s speed=0.0701x    frame=  408 fps=4.3 q=53.0 size=    2822kB time=00:00:06.70 bitrate=3449.7kbits/s speed=0.0701x    frame=  409 fps=4.3 q=53.0 size=    2822kB time=00:00:06.72 bitrate=3439.5kbits/s speed=0.0699x    frame=  411 fps=4.2 q=53.0 size=    2822kB time=00:00:06.76 bitrate=3419.1kbits/s speed=0.0699x    frame=  415 fps=4.2 q=53.0 size=    2822kB time=00:00:06.84 bitrate=3379.1kbits/s speed=0.0699x    frame=  419 fps=4.2 q=53.0 size=    2822kB time=00:00:06.92 bitrate=3340.1kbits/s speed=0.0699x    frame=  423 fps=4.2 q=53.0 size=    2822kB time=00:00:07.00 bitrate=3301.9kbits/s speed=0.0701x    frame=  424 fps=4.2 q=53.0 size=    2822kB time=00:00:07.02 bitrate=3292.5kbits/s speed=0.0699x    frame=  428 fps=4.2 q=53.0 size=    2822kB time=00:00:07.10 bitrate=3255.4kbits/s speed=0.0702x    frame=  430 fps=4.2 q=53.0 size=    2822kB time=00:00:07.14 bitrate=3237.2kbits/s speed=0.07x    frame=  432 fps=4.2 q=53.0 size=    2822kB time=00:00:07.18 bitrate=3219.1kbits/s speed=0.0699x    frame=  436 fps=4.2 q=53.0 size=    2822kB time=00:00:07.26 bitrate=3183.7kbits/s speed=0.0703x    frame=  438 fps=4.2 q=53.0 size=    2822kB time=00:00:07.30 bitrate=3166.2kbits/s speed=0.0701x    frame=  440 fps=4.2 q=53.0 size=    2822kB time=00:00:07.34 bitrate=3149.0kbits/s speed=0.0701x    frame=  442 fps=4.2 q=53.0 size=    2822kB time=00:00:07.38 bitrate=3131.9kbits/s speed=0.0701x    frame=  444 fps=4.2 q=53.0 size=    2822kB time=00:00:07.42 bitrate=3115.0kbits/s speed=0.0701x    frame=  447 fps=4.2 q=53.0 size=    2822kB time=00:00:07.48 bitrate=3090.1kbits/s speed=0.0702x    frame=  449 fps=4.2 q=53.0 size=    2822kB time=00:00:07.52 bitrate=3073.6kbits/s speed=0.0702x    frame=  451 fps=4.2 q=53.0 size=    2822kB time=00:00:07.56 bitrate=3057.4kbits/s speed=0.0702x    frame=  454 fps=4.2 q=53.0 size=    2822kB time=00:00:07.62 bitrate=3033.3kbits/s speed=0.0701x    frame=  456 fps=4.2 q=53.0 size=    2822kB time=00:00:07.66 bitrate=3017.4kbits/s speed=0.07x    frame=  459 fps=4.2 q=53.0 size=    2822kB time=00:00:07.72 bitrate=2994.0kbits/s speed=0.0701x    frame=  461 fps=4.2 q=53.0 size=    2822kB time=00:00:07.76 bitrate=2978.6kbits/s speed=0.0701x    frame=  463 fps=4.2 q=53.0 size=    2822kB time=00:00:07.80 bitrate=2963.3kbits/s speed=0.0701x    frame=  467 fps=4.1 q=53.0 size=    2822kB time=00:00:07.88 bitrate=2933.2kbits/s speed=0.07x    frame=  471 fps=4.1 q=53.0 size=    2822kB time=00:00:07.96 bitrate=2903.7kbits/s speed=0.0701x    frame=  474 fps=4.1 q=53.0 size=    2822kB time=00:00:08.02 bitrate=2882.0kbits/s speed=0.07x    frame=  477 fps=4.1 q=53.0 size=    2822kB time=00:00:08.08 bitrate=2860.6kbits/s speed=0.0702x    frame=  479 fps=4.1 q=53.0 size=    2822kB time=00:00:08.12 bitrate=2846.5kbits/s speed=0.07x    frame=  483 fps=4.1 q=53.0 size=    2822kB time=00:00:08.20 bitrate=2818.8kbits/s speed=0.0703x    frame=  485 fps=4.1 q=53.0 size=    2822kB time=00:00:08.24 bitrate=2805.1kbits/s speed=0.0702x    frame=  487 fps=4.1 q=53.0 size=    2822kB time=00:00:08.28 bitrate=2791.5kbits/s speed=0.0701x    frame=  490 fps=4.1 q=53.0 size=    2822kB time=00:00:08.34 bitrate=2771.5kbits/s speed=0.0702x    frame=  493 fps=4.1 q=53.0 size=    2822kB time=00:00:08.40 bitrate=2751.7kbits/s speed=0.07x    frame=  497 fps=4.1 q=53.0 size=    2822kB time=00:00:08.48 bitrate=2725.7kbits/s speed=0.0702x    frame=  499 fps=4.1 q=53.0 size=    2822kB time=00:00:08.52 bitrate=2712.9kbits/s speed=0.0701x    frame=  500 fps=4.1 q=53.0 size=    2822kB time=00:00:08.54 bitrate=2706.6kbits/s speed=0.0699x    frame=  500 fps=3.6 q=-1.0 Lsize=    5644kB time=00:00:09.94 bitrate=4651.2kbits/s speed=0.0708x    
video:5640kB audio:0kB subtitle:0kB other streams:0kB global headers:0kB muxing overhead: 0.077192%
bench: utime=528.876s
bench: maxrss=2549600kB
[libx264 @ 0x44131c0] frame I:2     Avg QP:42.40  size:161210
[libx264 @ 0x44131c0] frame P:134   Avg QP:50.63  size: 21871
[libx264 @ 0x44131c0] frame B:364   Avg QP:50.87  size:  6927
[libx264 @ 0x44131c0] consecutive B-frames:  0.4%  2.8% 14.4% 82.4%
[libx264 @ 0x44131c0] mb I  I16..4: 27.8% 68.8%  3.4%
[libx264 @ 0x44131c0] mb P  I16..4:  5.2%  4.6%  0.0%  P16..4: 23.1%  0.6%  1.7%  0.0%  0.0%    skip:64.8%
[libx264 @ 0x44131c0] mb B  I16..4:  0.0%  0.0%  0.0%  B16..8: 21.8%  0.2%  0.0%  direct: 0.1%  skip:77.9%  L0:36.2% L1:63.8% BI: 0.0%
[libx264 @ 0x44131c0] final ratefactor: 45.19
[libx264 @ 0x44131c0] 8x8 transform intra:49.6% inter:95.8%
[libx264 @ 0x44131c0] direct mvs  spatial:98.9% temporal:1.1%
[libx264 @ 0x44131c0] coded y,uvDC,uvAC intra: 8.8% 34.0% 3.1% inter: 0.4% 2.8% 0.0%
[libx264 @ 0x44131c0] i16 v,h,dc,p: 54% 22%  4% 20%
[libx264 @ 0x44131c0] i8 v,h,dc,ddl,ddr,vr,hd,vl,hu:  8%  3% 57%  6%  6%  6%  6%  4%  4%
[libx264 @ 0x44131c0] i4 v,h,dc,ddl,ddr,vr,hd,vl,hu:  6%  3%  2% 15% 17% 15% 15% 11% 15%
[libx264 @ 0x44131c0] i8c dc,h,v,p: 80%  9%  9%  2%
[libx264 @ 0x44131c0] Weighted P-Frames: Y:0.7% UV:0.0%
[libx264 @ 0x44131c0] ref P L0: 59.6%  0.8% 18.0%  5.5%  4.9%  4.3%  4.5%  2.4%  0.0%
[libx264 @ 0x44131c0] ref B L0: 92.8%  3.6%  1.6%  0.7%  0.6%  0.4%  0.3%
[libx264 @ 0x44131c0] ref B L1: 99.0%  1.0%
[libx264 @ 0x44131c0] kb/s:4619.62
